<svg xmlns="http://www.w3.org/2000/svg" width="64" height="64" viewBox="0 0 64 64">
  <!-- Background -->
  <rect width="64" height="64" rx="12" fill="#121212" />
  
  <!-- Decorative gradient background -->
  <defs>
    <linearGradient id="grad1" x1="0%" y1="0%" x2="100%" y2="100%">
      <stop offset="0%" stop-color="#4CA7FF" stop-opacity="0.15" />
      <stop offset="100%" stop-color="#FF7E33" stop-opacity="0.15" />
    </linearGradient>
  </defs>
  <rect width="64" height="64" rx="12" fill="url(#grad1)" />
  
  <!-- O letter -->
  <path d="M24 20c-5.523 0-10 4.477-10 10s4.477 10 10 10 10-4.477 10-10-4.477-10-10-10zm0 4c3.314 0 6 2.686 6 6s-2.686 6-6 6-6-2.686-6-6 2.686-6 6-6z" fill="#4CA7FF" />
  
  <!-- G letter -->
  <path d="M50 20c-5.523 0-10 4.477-10 10s4.477 10 10 10c2.626 0 5.013-1.014 6.796-2.67l-3.638-3.638C52.089 34.508 51.088 35 50 35c-2.757 0-5-2.243-5-5s2.243-5 5-5c1.088 0 2.089.492 2.766 1.308L56.414 23c-1.783-1.783-4.247-2.895-6.97-2.992L50 20z" fill="#FF7E33" />
  
  <!-- Decorative dot representing the combined logo -->
  <circle cx="32" cy="32" r="2" fill="#FFFFFF" />
</svg> 